<?xml version="1.0" encoding="UTF-8" standalone="no"?>
<svg
   xmlns:dc="http://purl.org/dc/elements/1.1/"
   xmlns:cc="http://creativecommons.org/ns#"
   xmlns:rdf="http://www.w3.org/1999/02/22-rdf-syntax-ns#"
   xmlns:svg="http://www.w3.org/2000/svg"
   xmlns="http://www.w3.org/2000/svg"
   xmlns:sodipodi="http://sodipodi.sourceforge.net/DTD/sodipodi-0.dtd"
   xmlns:inkscape="http://www.inkscape.org/namespaces/inkscape"
   width="512"
   height="512"
   viewBox="0 0 135.46666 135.46667"
   version="1.1"
   id="svg8"
   sodipodi:docname="monogram-rendered.svg"
   inkscape:version="1.0 (4035a4fb49, 2020-05-01)">
  <defs
     id="defs2" />
  <sodipodi:namedview
     id="base"
     pagecolor="#ffffff"
     bordercolor="#666666"
     borderopacity="1.0"
     inkscape:pageopacity="1"
     inkscape:pageshadow="2"
     inkscape:zoom="1"
     inkscape:cx="112.88391"
     inkscape:cy="264.9313"
     inkscape:document-units="mm"
     inkscape:current-layer="layer1"
     inkscape:document-rotation="0"
     showgrid="false"
     units="px"
     inkscape:pagecheckerboard="true"
     inkscape:window-width="2560"
     inkscape:window-height="1537"
     inkscape:window-x="-8"
     inkscape:window-y="-8"
     inkscape:window-maximized="1" />
  <metadata
     id="metadata5">
    <rdf:RDF>
      <cc:Work
         rdf:about="">
        <dc:format>image/svg+xml</dc:format>
        <dc:type
           rdf:resource="http://purl.org/dc/dcmitype/StillImage" />
        <dc:title></dc:title>
      </cc:Work>
    </rdf:RDF>
  </metadata>
  <g
     inkscape:label="Layer 1"
     inkscape:groupmode="layer"
     id="layer1">
    <rect
       y="0"
       x="0"
       height="135.46666"
       width="135.46666"
       id="rect2624"
       style="fill:#ffffff;stroke-width:5.43084" />
    <g
       transform="matrix(0.71786426,0,0,0.71761059,21.35748,19.930096)"
       id="g869">
      <g
         style="font-style:normal;font-variant:normal;font-weight:normal;font-stretch:normal;font-size:50.8px;line-height:1.25;font-family:'Square Text Tryout';-inkscape-font-specification:'Square Text Tryout';letter-spacing:0px;word-spacing:0px;fill:#f05f40;fill-opacity:1;stroke:none;stroke-width:0.264583"
         id="text837"
         aria-label="A">
        <path
           id="path2626"
           style="font-style:normal;font-variant:normal;font-weight:normal;font-stretch:normal;font-size:50.8px;font-family:Elephant;-inkscape-font-specification:Elephant;fill:#f05f40;fill-opacity:1;stroke-width:0.264583"
           d="m 33.386488,39.901494 -4.4704,-12.4968 -4.318,12.4968 z m -9.144,1.0668 -1.5748,5.2832 q -0.508,1.8288 -0.508,2.8956 0,1.1684 0.5588,1.6256 0.6096,0.4572 1.524,0.6604 0.9144,0.1524 1.778,0.2032 0.8636,0.0508 1.6764,0.1016 v 0.8128 h -14.3256 v -0.8128 l 2.9972,-0.2032 q 1.6764,-0.2032 2.54,-0.8128 0.8636,-0.6604 1.27,-1.6256 0.4572,-0.9652 0.9652,-2.286 0.5588,-1.3208 0.9144,-2.3876 l 9.7028,-29.0576 h 5.588 l 10.7188,29.0576 1.5748,3.9624 q 0.7112,1.5748 1.4224,2.286 0.762,0.6604 2.0828,0.8636 l 2.0828,0.2032 v 0.8128 h -24.13 v -0.8128 q 0.6096,0 1.0668,0 0.508,-0.0508 1.778,-0.254 1.27,-0.2032 1.8288,-0.508 0.5588,-0.3556 0.5588,-1.4224 0,-1.1176 -0.7112,-3.2004 l -1.8288,-5.3848 z" />
      </g>
      <g
         style="font-style:normal;font-variant:normal;font-weight:normal;font-stretch:normal;font-size:105.623px;line-height:1.25;font-family:'Square Text Tryout';-inkscape-font-specification:'Square Text Tryout';letter-spacing:0px;word-spacing:0px;fill:#4075f0;fill-opacity:1;stroke:none;stroke-width:2.64057"
         id="text861"
         aria-label="K">
        <path
           id="path2629"
           style="font-style:normal;font-variant:normal;font-weight:normal;font-stretch:normal;font-family:'Script MT Bold';-inkscape-font-specification:'Script MT Bold, ';fill:#4075f0;fill-opacity:1;stroke-width:2.64057"
           d="m 75.038763,37.655835 q -5.724684,2.21767 -9.644287,2.21767 -2.784982,0 -7.117175,-1.598786 -4.28062,-1.598785 -6.188848,-1.598785 -3.403866,0 -5.827831,2.681834 -2.423966,2.63026 -2.423966,6.395142 0,4.332194 3.919604,7.632913 1.289343,1.083048 1.289343,1.650359 0,0.876753 -2.372392,3.249145 -2.320818,2.372392 -3.971177,2.372392 -1.80508,0 -3.610161,-3.042851 -1.805081,-3.04285 -1.805081,-6.240421 0,-8.354944 6.807733,-15.472119 6.807732,-7.117175 14.750087,-7.117175 3.04285,0 7.529765,1.753507 4.538488,1.701933 6.549863,1.701933 3.094424,0 5.466816,-2.527113 0.82518,-0.82518 1.495638,-0.82518 0.670459,0 2.217671,0.515738 1.598785,0.515737 1.598785,1.134622 0,0.464163 -2.888129,4.177472 -2.888129,3.661735 -4.486914,7.942355 -1.598786,4.280619 -2.991277,12.738711 l -1.083048,6.343569 q -3.094424,18.875986 -7.32347,26.560471 -4.177472,7.632913 -10.521041,11.449369 -6.291995,3.816453 -13.615465,3.816453 -6.962454,0 -12.326122,-3.30072 -5.312094,-3.300715 -5.312094,-7.37504 0,-2.011375 3.507014,-5.054225 3.507013,-3.094424 5.054225,-3.094424 2.423966,0 2.423966,3.919604 0.154721,10.985204 6.962453,10.985204 10.572615,0 13.976482,-24.239653 1.495638,-10.36632 4.383767,-18.050806 2.939702,-7.73606 15.575266,-19.701165 z m 36.204757,53.327237 q -6.18885,6.549864 -10.88205,9.592718 -4.693214,2.99127 -9.902161,2.99127 -5.312094,0 -8.819108,-3.919601 -3.45544,-3.919603 -3.45544,-9.95373 0,-0.876753 0.670459,-6.756159 0.722032,-5.930979 0.722032,-7.065601 0,-4.899504 -2.011376,-6.962453 -0.618885,0.103147 -1.908228,0.103147 -2.423965,0 -2.423965,-2.114523 0,-3.094424 3.197571,-3.094424 l 2.269244,0.154721 q 3.249145,0 5.51839,-3.04285 2.269244,-3.04285 4.332193,-11.449368 Q 93.605307,28.8883 103.76533,28.8883 q 2.37239,0 4.48692,1.805081 2.16609,1.80508 2.16609,3.764882 0,1.186196 -1.90823,4.951078 -1.90822,3.713309 -2.99127,3.713309 -0.56731,0 -1.70193,-1.908228 -1.13463,-1.908228 -3.3523,-1.908228 -4.332191,0 -6.756156,9.437993 -2.423965,9.437993 -4.899504,12.841859 -2.475539,3.403866 -5.363668,4.435341 5.157373,2.681834 7.478191,6.240421 2.372391,3.558588 2.372391,9.437993 0,1.134622 -0.257868,3.713309 -0.206295,2.578686 -0.206295,3.816456 0,5.776257 4.693209,5.776257 5.41524,0 13.71861,-9.95373 z" />
      </g>
      <g
         style="font-style:normal;font-variant:normal;font-weight:normal;font-stretch:normal;font-size:50.8px;line-height:1.25;font-family:'Square Text Tryout';-inkscape-font-specification:'Square Text Tryout';letter-spacing:0px;word-spacing:0px;fill:#f05f40;fill-opacity:1;stroke:none;stroke-width:0.264583"
         id="text837-3"
         aria-label="S">
        <path
           id="path2632"
           style="font-style:normal;font-variant:normal;font-weight:normal;font-stretch:normal;font-size:50.8px;font-family:Elephant;-inkscape-font-specification:Elephant;fill:#f05f40;fill-opacity:1;stroke-width:0.264583"
           d="m 115.46522,106.01431 q 0,5.0292 -4.2672,8.2804 -4.2164,3.2004 -9.1948,3.2004 -4.368802,0 -8.636002,-2.7432 -4.2672,-2.794 -4.9276,-2.794 -1.6764,0 -2.0828,1.27 -0.4064,1.27 -0.762,4.2672 h -0.8636 V 99.308714 h 0.8636 q 0.3048,1.066796 1.016,3.505196 0.762,2.4384 2.7432,5.842 2.032,3.3528 5.2832,5.588 3.302,2.2352 7.620002,2.2352 2.4892,0 4.064,-1.3208 1.5748,-1.3208 1.5748,-3.1496 0,-2.1844 -1.1684,-3.4544 -1.1684,-1.27 -4.2164,-2.4384 -3.048002,-1.2192 -6.451602,-2.5908 -3.4036,-1.3716 -7.2136,-3.708396 -3.81,-2.286 -3.81,-8.636 0,-4.9784 4.0132,-8.4328 4.0132,-3.4544 9.2456,-3.4544 2.895602,0 5.638802,1.3716 l 5.2832,2.9464 q 1.4732,0 1.9304,-1.2192 0.4572,-1.27 0.4572,-3.0988 h 0.9652 v 13.462 h -0.9144 q -0.254,-0.8636 -1.0668,-2.9464 -0.762,-2.0828 -3.048,-4.6736 -2.2352,-2.5908 -4.4704,-3.7084 -2.1844,-1.1684 -5.283202,-1.1684 -2.0828,0 -3.8608,1.2192 -1.778,1.2192 -1.778,3.048 0,1.9304 1.3208,3.2512 1.3716,1.27 3.0988,2.032 1.778,0.762 4.876802,1.9304 3.0988,1.1684 6.4008,2.7432 3.3528,1.524 5.4864,4.5212 2.1336,2.946396 2.1336,7.010396 z" />
      </g>
    </g>
  </g>
</svg>
